# This file uses centimeters as units for non-parametric coordinates.

mtllib Mesh.mtl
g default
v 0.457148 2.124972 2.164561
v 0.284628 2.124972 1.992040
v 0.048953 2.124972 1.928886
v -0.186722 2.124972 1.992040
v -0.359243 2.124972 2.164561
v -0.422398 2.124972 2.400236
v -0.359243 2.124972 2.635911
v -0.186722 2.124972 2.808431
v 0.048953 2.124972 2.871586
v 0.284628 2.124972 2.808431
v 0.457148 2.124972 2.635911
v 0.520303 2.124972 2.400236
v 0.685027 3.930959 2.032998
v 0.416190 3.930959 1.764161
v 0.048953 3.930959 1.665760
v -0.318285 3.930959 1.764161
v -0.587122 3.930959 2.032998
v -0.685523 3.930959 2.400236
v -0.587122 3.930959 2.767474
v -0.318285 3.930959 3.036310
v 0.048953 3.930959 3.134711
v 0.416190 3.930959 3.036310
v 0.685027 3.930959 2.767474
v 0.783428 3.930959 2.400236
v 0.048953 2.124972 2.400236
vt 0.635316 0.078125
vt 0.578125 0.020934
vt 0.500000 0.000000
vt 0.421875 0.020934
vt 0.364684 0.078125
vt 0.343750 0.156250
vt 0.364684 0.234375
vt 0.421875 0.291566
vt 0.500000 0.312500
vt 0.578125 0.291566
vt 0.635316 0.234375
vt 0.656250 0.156250
vt 0.375000 0.312500
vt 0.395833 0.312500
vt 0.416667 0.312500
vt 0.437500 0.312500
vt 0.458333 0.312500
vt 0.479167 0.312500
vt 0.500000 0.312500
vt 0.520833 0.312500
vt 0.541667 0.312500
vt 0.562500 0.312500
vt 0.583333 0.312500
vt 0.604167 0.312500
vt 0.625000 0.312500
vt 0.375000 0.688440
vt 0.395833 0.688440
vt 0.416667 0.688440
vt 0.437500 0.688440
vt 0.458333 0.688440
vt 0.479167 0.688440
vt 0.500000 0.688440
vt 0.520833 0.688440
vt 0.541667 0.688440
vt 0.562500 0.688440
vt 0.583333 0.688440
vt 0.604167 0.688440
vt 0.625000 0.688440
vt 0.500000 0.150000
vn -0.700207 0.139361 0.700207
vn -0.700207 0.139361 0.700207
vn -0.700207 0.139361 0.700207
vn -0.700207 0.139361 0.700207
vn -0.256302 0.139360 0.956498
vn -0.256302 0.139360 0.956498
vn -0.256302 0.139360 0.956498
vn -0.256302 0.139360 0.956498
vn 0.256302 0.139360 0.956498
vn 0.256302 0.139360 0.956498
vn 0.256302 0.139360 0.956498
vn 0.256302 0.139360 0.956498
vn 0.700207 0.139361 0.700207
vn 0.700207 0.139361 0.700207
vn 0.700207 0.139361 0.700207
vn 0.700207 0.139361 0.700207
vn 0.956498 0.139360 0.256302
vn 0.956498 0.139360 0.256302
vn 0.956498 0.139360 0.256302
vn 0.956498 0.139360 0.256302
vn 0.956498 0.139360 -0.256302
vn 0.956498 0.139360 -0.256302
vn 0.956498 0.139360 -0.256302
vn 0.956498 0.139360 -0.256302
vn 0.700207 0.139361 -0.700207
vn 0.700207 0.139361 -0.700207
vn 0.700207 0.139361 -0.700207
vn 0.700207 0.139361 -0.700207
vn 0.256302 0.139360 -0.956498
vn 0.256302 0.139360 -0.956498
vn 0.256302 0.139360 -0.956498
vn 0.256302 0.139360 -0.956498
vn -0.256302 0.139360 -0.956498
vn -0.256302 0.139360 -0.956498
vn -0.256302 0.139360 -0.956498
vn -0.256302 0.139360 -0.956498
vn -0.700207 0.139361 -0.700207
vn -0.700207 0.139361 -0.700207
vn -0.700207 0.139361 -0.700207
vn -0.700207 0.139361 -0.700207
vn -0.956498 0.139360 -0.256302
vn -0.956498 0.139360 -0.256302
vn -0.956498 0.139360 -0.256302
vn -0.956498 0.139360 -0.256302
vn -0.956498 0.139360 0.256302
vn -0.956498 0.139360 0.256302
vn -0.956498 0.139360 0.256302
vn -0.956498 0.139360 0.256302
vn 0.000000 1.000000 0.000000
vn 0.000000 1.000000 0.000000
vn 0.000000 1.000000 -0.000000
vn 0.000000 1.000000 0.000000
vn 0.000000 1.000000 0.000000
vn 0.000000 1.000000 -0.000000
vn 0.000000 1.000000 0.000000
vn 0.000000 1.000000 0.000000
vn 0.000000 1.000000 0.000000
vn 0.000000 1.000000 0.000000
vn 0.000000 1.000000 0.000000
vn 0.000000 1.000000 0.000000
vn 0.000000 1.000000 0.000000
s off
g pCylinder1
usemtl initialShadingGroup
f 1/13/1 13/26/2 14/27/3 2/14/4
f 2/14/5 14/27/6 15/28/7 3/15/8
f 3/15/9 15/28/10 16/29/11 4/16/12
f 4/16/13 16/29/14 17/30/15 5/17/16
f 5/17/17 17/30/18 18/31/19 6/18/20
f 6/18/21 18/31/22 19/32/23 7/19/24
f 7/19/25 19/32/26 20/33/27 8/20/28
f 8/20/29 20/33/30 21/34/31 9/21/32
f 9/21/33 21/34/34 22/35/35 10/22/36
f 10/22/37 22/35/38 23/36/39 11/23/40
f 11/23/41 23/36/42 24/37/43 12/24/44
f 12/24/45 24/37/46 13/38/47 1/25/48
s 1
f 2/2/49 25/39/50 1/1/51
f 3/3/52 25/39/50 2/2/49
f 4/4/53 25/39/50 3/3/52
f 5/5/54 25/39/50 4/4/53
f 6/6/55 25/39/50 5/5/54
f 7/7/56 25/39/50 6/6/55
f 8/8/57 25/39/50 7/7/56
f 9/9/58 25/39/50 8/8/57
f 10/10/59 25/39/50 9/9/58
f 11/11/60 25/39/50 10/10/59
f 12/12/61 25/39/50 11/11/60
f 1/1/51 25/39/50 12/12/61
g default
v 0.457148 2.124972 2.164561
v 0.284628 2.124972 1.992040
v 0.048953 2.124972 1.928886
v -0.186722 2.124972 1.992040
v -0.359243 2.124972 2.164561
v -0.422398 2.124972 2.400236
v -0.359243 2.124972 2.635911
v -0.186722 2.124972 2.808431
v 0.048953 2.124972 2.871586
v 0.284628 2.124972 2.808431
v 0.457148 2.124972 2.635911
v 0.520303 2.124972 2.400236
v 0.685027 3.930959 2.032998
v 0.416190 3.930959 1.764161
v 0.048953 3.930959 1.665760
v -0.318285 3.930959 1.764161
v -0.587122 3.930959 2.032998
v -0.685523 3.930959 2.400236
v -0.587122 3.930959 2.767474
v -0.318285 3.930959 3.036310
v 0.048953 3.930959 3.134711
v 0.416190 3.930959 3.036310
v 0.685027 3.930959 2.767474
v 0.783428 3.930959 2.400236
v 0.048953 2.124972 2.400236
vt 0.635316 0.078125
vt 0.578125 0.020934
vt 0.500000 0.000000
vt 0.421875 0.020934
vt 0.364684 0.078125
vt 0.343750 0.156250
vt 0.364684 0.234375
vt 0.421875 0.291566
vt 0.500000 0.312500
vt 0.578125 0.291566
vt 0.635316 0.234375
vt 0.656250 0.156250
vt 0.375000 0.312500
vt 0.395833 0.312500
vt 0.416667 0.312500
vt 0.437500 0.312500
vt 0.458333 0.312500
vt 0.479167 0.312500
vt 0.500000 0.312500
vt 0.520833 0.312500
vt 0.541667 0.312500
vt 0.562500 0.312500
vt 0.583333 0.312500
vt 0.604167 0.312500
vt 0.625000 0.312500
vt 0.375000 0.688440
vt 0.395833 0.688440
vt 0.416667 0.688440
vt 0.437500 0.688440
vt 0.458333 0.688440
vt 0.479167 0.688440
vt 0.500000 0.688440
vt 0.520833 0.688440
vt 0.541667 0.688440
vt 0.562500 0.688440
vt 0.583333 0.688440
vt 0.604167 0.688440
vt 0.625000 0.688440
vt 0.500000 0.150000
vn 0.700207 -0.139361 -0.700207
vn 0.700207 -0.139361 -0.700207
vn 0.700207 -0.139361 -0.700207
vn 0.700207 -0.139361 -0.700207
vn 0.256302 -0.139360 -0.956498
vn 0.256302 -0.139360 -0.956498
vn 0.256302 -0.139360 -0.956498
vn 0.256302 -0.139360 -0.956498
vn -0.256302 -0.139360 -0.956498
vn -0.256302 -0.139360 -0.956498
vn -0.256302 -0.139360 -0.956498
vn -0.256302 -0.139360 -0.956498
vn -0.700207 -0.139361 -0.700207
vn -0.700207 -0.139361 -0.700207
vn -0.700207 -0.139361 -0.700207
vn -0.700207 -0.139361 -0.700207
vn -0.956498 -0.139360 -0.256302
vn -0.956498 -0.139360 -0.256302
vn -0.956498 -0.139360 -0.256302
vn -0.956498 -0.139360 -0.256302
vn -0.956498 -0.139360 0.256302
vn -0.956498 -0.139360 0.256302
vn -0.956498 -0.139360 0.256302
vn -0.956498 -0.139360 0.256302
vn -0.700207 -0.139361 0.700207
vn -0.700207 -0.139361 0.700207
vn -0.700207 -0.139361 0.700207
vn -0.700207 -0.139361 0.700207
vn -0.256302 -0.139360 0.956498
vn -0.256302 -0.139360 0.956498
vn -0.256302 -0.139360 0.956498
vn -0.256302 -0.139360 0.956498
vn 0.256302 -0.139360 0.956498
vn 0.256302 -0.139360 0.956498
vn 0.256302 -0.139360 0.956498
vn 0.256302 -0.139360 0.956498
vn 0.700207 -0.139361 0.700207
vn 0.700207 -0.139361 0.700207
vn 0.700207 -0.139361 0.700207
vn 0.700207 -0.139361 0.700207
vn 0.956498 -0.139360 0.256302
vn 0.956498 -0.139360 0.256302
vn 0.956498 -0.139360 0.256302
vn 0.956498 -0.139360 0.256302
vn 0.956498 -0.139360 -0.256302
vn 0.956498 -0.139360 -0.256302
vn 0.956498 -0.139360 -0.256302
vn 0.956498 -0.139360 -0.256302
vn 0.000000 -1.000000 0.000000
vn 0.000000 -1.000000 0.000000
vn 0.000000 -1.000000 0.000000
vn 0.000000 -1.000000 0.000000
vn 0.000000 -1.000000 0.000000
vn 0.000000 -1.000000 0.000000
vn 0.000000 -1.000000 0.000000
vn 0.000000 -1.000000 0.000000
vn 0.000000 -1.000000 0.000000
vn 0.000000 -1.000000 0.000000
vn 0.000000 -1.000000 0.000000
vn 0.000000 -1.000000 0.000000
vn 0.000000 -1.000000 0.000000
s off
g pCylinder2
usemtl initialShadingGroup
f 26/52/62 27/53/63 39/66/64 38/65/65
f 27/53/66 28/54/67 40/67/68 39/66/69
f 28/54/70 29/55/71 41/68/72 40/67/73
f 29/55/74 30/56/75 42/69/76 41/68/77
f 30/56/78 31/57/79 43/70/80 42/69/81
f 31/57/82 32/58/83 44/71/84 43/70/85
f 32/58/86 33/59/87 45/72/88 44/71/89
f 33/59/90 34/60/91 46/73/92 45/72/93
f 34/60/94 35/61/95 47/74/96 46/73/97
f 35/61/98 36/62/99 48/75/100 47/74/101
f 36/62/102 37/63/103 49/76/104 48/75/105
f 37/63/106 26/64/107 38/77/108 49/76/109
s 1
f 27/41/110 26/40/111 50/78/112
f 28/42/113 27/41/110 50/78/112
f 29/43/114 28/42/113 50/78/112
f 30/44/115 29/43/114 50/78/112
f 31/45/116 30/44/115 50/78/112
f 32/46/117 31/45/116 50/78/112
f 33/47/118 32/46/117 50/78/112
f 34/48/119 33/47/118 50/78/112
f 35/49/120 34/48/119 50/78/112
f 36/50/121 35/49/120 50/78/112
f 37/51/122 36/50/121 50/78/112
f 26/40/111 37/51/122 50/78/112
